<svg xmlns="http://www.w3.org/2000/svg" viewBox="0 0 240 240" fill="none">
  <defs>
    <linearGradient id="eleni-ring" x1="42" y1="34" x2="194" y2="204" gradientUnits="userSpaceOnUse">
      <stop stop-color="#D786A3"/>
      <stop offset="0.52" stop-color="#BAA7DD"/>
      <stop offset="1" stop-color="#A7B89B"/>
    </linearGradient>
    <radialGradient id="eleni-halo" cx="0" cy="0" r="1" gradientUnits="userSpaceOnUse" gradientTransform="translate(120 118) rotate(90) scale(108)">
      <stop stop-color="#FFFDFB"/>
      <stop offset="1" stop-color="#FFF6F1"/>
    </radialGradient>
    <linearGradient id="eleni-flame" x1="120" y1="72" x2="120" y2="122" gradientUnits="userSpaceOnUse">
      <stop stop-color="#E5A1BA"/>
      <stop offset="1" stop-color="#C97B9D"/>
    </linearGradient>
  </defs>
  <circle cx="120" cy="120" r="98" fill="url(#eleni-halo)"/>
  <circle cx="120" cy="120" r="90" fill="#FFF9F5" stroke="url(#eleni-ring)" stroke-width="10"/>
  <circle cx="120" cy="120" r="72" fill="#FFFDFC" stroke="#E9D8E0" stroke-width="2"/>
  <g stroke="#5D484D" stroke-linecap="round" stroke-linejoin="round">
    <path d="M91 142c7-14 21-22 29-22s22 8 29 22l-8 24c-2 8-10 14-18 14h-6c-8 0-16-6-18-14l-8-24Z" fill="#F7DEE7" stroke-width="6"/>
    <path d="M90 142c11-8 18 6 30 0s19 8 30 0" stroke-width="6"/>
    <path d="M110 176h20" stroke-width="6"/>
    <path d="M120 72c14 12 19 30 0 48-19-18-14-36 0-48Z" fill="url(#eleni-flame)" stroke-width="6"/>
    <path d="M94 97c15-1 24 11 25 26-16 1-27-9-25-26Z" fill="#BAA7DD" stroke-width="6"/>
    <path d="M146 97c-15-1-24 11-25 26 16 1 27-9 25-26Z" fill="#A7B89B" stroke-width="6"/>
    <path d="M120 120v16" stroke-width="6"/>
  </g>
  <circle cx="82" cy="95" r="5" fill="#D786A3"/>
  <circle cx="159" cy="88" r="4.5" fill="#BAA7DD"/>
  <circle cx="153" cy="156" r="5" fill="#A7B89B"/>
</svg>
